<svg xmlns="http://www.w3.org/2000/svg" xmlns:xlink="http://www.w3.org/1999/xlink" width="306.603" height="306.603" viewBox="0 0 306.603 306.603">
  <defs>
    <style>
      .cls-1 {
        fill: #131618;
      }

      .cls-2 {
        fill: none;
      }

      .cls-3 {
        fill: url(#linear-gradient);
      }

      .cls-4 {
        fill: url(#linear-gradient-2);
      }

      .cls-5 {
        fill: #fff;
      }
    </style>
    <linearGradient id="linear-gradient" x1="-128.16" y1="-18.722" x2="355.499" y2="53.508" gradientUnits="objectBoundingBox">
      <stop offset="0" stop-color="#ffd973"/>
      <stop offset="0.191" stop-color="#a7511c"/>
      <stop offset="0.404" stop-color="#ffd771"/>
      <stop offset="0.601" stop-color="#a9501c"/>
      <stop offset="0.784" stop-color="#ffd973"/>
      <stop offset="1" stop-color="#a9501c"/>
    </linearGradient>
    <linearGradient id="linear-gradient-2" x1="0.02" y1="0.096" x2="0.907" y2="0.843" xlink:href="#linear-gradient"/>
  </defs>
  <g id="Group_88" data-name="Group 88" transform="translate(-621 -155.858)">
    <g id="Group_6" data-name="Group 6" transform="translate(621 155.858)">
      <path id="Path_1" data-name="Path 1" class="cls-1" d="M928.381,395.346c0,82.262-66.926,149.188-149.188,149.188-71.357,0-131.185-50.368-145.781-117.412a10.677,10.677,0,0,0,5.006,1.058,17.51,17.51,0,0,0,3.126-.341c5.676-1.1,10.835-3.584,15.912-6.251,10.342-5.441,20.013-11.964,29.862-18.2,7.979-5.042,15.9-10.166,24.514-14.055a33.525,33.525,0,0,1,8.767-2.75c1.386-.188,1.974-.047,1.692,1.668-1.21,7.557-1.116,15.183-1,22.81.047,2.35.834,2.785,4.43,3.773,1.975.528,2.644-.717,3.385-2a45.184,45.184,0,0,0,3.373-8.321,135.841,135.841,0,0,1,6.746-16.675,24.68,24.68,0,0,1,6.593-7.9,10.623,10.623,0,0,1-.082,4.007,105.43,105.43,0,0,1-3.784,14.8c-1.292,4.324-1.575,8.673.6,12.845,1.751,3.385,3.96,3.479,6.123.305a31.782,31.782,0,0,0,3.137-6.6,145.012,145.012,0,0,1,10.435-21.905c1.821-3.1,3.831-6,6.969-7.944.611-.376,1.316-1.211,2-.717.635.435.024,1.3-.129,1.951-1.222,4.936-3.314,9.625-4.418,14.631-1.634,7.592-3.173,15.207-2.715,23.022.423,7.427,4.208,12.269,10.765,14.431a4.638,4.638,0,0,0,5.582-1.492,42.3,42.3,0,0,0,5.864-9.154c1.516-3.044,2.867-6.158,4.5-9.683v12.657c0,1.269-.07,2.738,1.575,3.008a11.4,11.4,0,0,0,8.755-1.927,2.067,2.067,0,0,0,.763-1.422q1.6-8.761,3.3-17.5c1.21-6.287,2.961-12.363,6.757-17.651.764-1.046,1.587-2.421,3.126-2.045,1.386.341,1.6,1.845,1.845,3.055a37.447,37.447,0,0,1,.611,11.047,162.538,162.538,0,0,0-.928,18.826c.141,4.83.4,9.66,2.3,14.184,2.174,5.241,6.464,6.816,11.611,4.348a16.259,16.259,0,0,0,6.534-6.322c1.986-3.115,3.772-6.358,6.276-9.143A130.064,130.064,0,0,1,875,393.842c9.3-5.312,19.085-9.425,29.862-10.33,8.555-.717,16.887-.2,23.421,6.393C928.346,391.715,928.381,393.525,928.381,395.346Z" transform="translate(-625.891 -242.045)"/>
      <g id="Group_2" data-name="Group 2" transform="translate(153.272 152.65)">
        <g id="Group_1" data-name="Group 1">
          <path id="Path_2" data-name="Path 2" class="cls-2" d="M874.01,409.086c-.011-.434-.035-.87-.058-1.3" transform="translate(-873.952 -407.782)"/>
        </g>
      </g>
      <g id="Group_3" data-name="Group 3" transform="translate(0 0)">
        <path id="Path_3" data-name="Path 3" class="cls-3" d="M630.35,444.621a5.392,5.392,0,0,0,.505,3.173C630.667,446.736,630.5,445.679,630.35,444.621Zm0,0a5.392,5.392,0,0,0,.505,3.173C630.667,446.736,630.5,445.679,630.35,444.621Z" transform="translate(-624.662 -269.649)"/>
        <path id="Path_4" data-name="Path 4" class="cls-4" d="M927.5,303.46c-.012-.435-.035-.87-.059-1.3-3.667-81.3-70.957-146.3-153.137-146.3-84.53,0-153.3,68.771-153.3,153.3s68.771,153.3,153.3,153.3,153.3-68.771,153.3-153.3C927.6,307.244,927.568,305.352,927.5,303.46ZM627.193,334a5.391,5.391,0,0,1-.505-3.173c-.011-.012-.011-.012-.011-.024a149.557,149.557,0,0,1-1.563-21.646c0-82.262,66.926-149.188,149.188-149.188,78.537,0,143.1,61,148.777,138.118a25.3,25.3,0,0,0-12.41-4.806c-8.438-.858-16.582.787-24.562,3.267-23.35,7.286-41.754,21.483-56.443,40.779-.823,1.069-1.551,2.186-2.444,3.15-1.281,1.375-2.045,1.2-2.691-.576a21.752,21.752,0,0,1-.952-6.616c-.306-8.038.857-16.042.564-24.091a35.4,35.4,0,0,0-1.81-11.329c-3.15-8.4-12.387-9.966-18.156-3.091a28.935,28.935,0,0,0-4.9,9.2c-.682,1.974-1.257,4-1.951,6.181a3.223,3.223,0,0,1-.365-2.221c.176-5.523.411-11.035.505-16.558a2.562,2.562,0,0,1,1.869-2.738,80.432,80.432,0,0,0,20.33-11.552c10.635-8.367,18.7-18.6,22.176-31.918,1.786-6.84,2.127-13.726-.917-20.319-2.7-5.841-7.38-8.779-13.844-8.661a20.362,20.362,0,0,0-12.01,4.395,44.051,44.051,0,0,0-11.047,12.751c-6.851,11.27-11.27,23.539-14.266,36.3-2.162,9.19-2.609,18.662-3.479,28.052-.411,4.489-.059,9.061-1.563,13.479a110.342,110.342,0,0,1-8.837,20.084,21.137,21.137,0,0,1-2.879,4.1c-.811.858-1.669,1.869-3.02,1.54-1.422-.329-1.821-1.634-2.115-2.856a24.836,24.836,0,0,1-.575-8.332c.87-9.1,3.314-17.816,6.216-26.441a35.005,35.005,0,0,0,1.974-8.121c.235-2.726-.552-4.9-3.1-6.346-2.7-1.528-5.335-1.974-8.05-.105a32.257,32.257,0,0,0-8.649,8.426c-2.867,4.231-5.383,8.673-7.873,13.1-.235.423-.282,1.023-1.07,1.163.517-3.843,1.222-7.544,1.363-11.317.082-2.068-.505-3.913-2.48-4.971a5.683,5.683,0,0,0-6.146.2A21.2,21.2,0,0,0,735.2,295.3c-4.066,4.63-6.616,10.165-9.2,15.665-.259.576-.34,1.3-1.187,1.822.094-3.208-.376-6.229.305-9.155.87-3.7-2.421-7.357-6.087-7.275a27.728,27.728,0,0,0-5.406.541c-6.193,1.386-11.834,4.171-17.381,7.144-11.328,6.076-21.988,13.268-32.928,20.037-7.227,4.477-14.431,9.037-22.4,12.163a19.9,19.9,0,0,1-7.321,1.692A7.178,7.178,0,0,1,627.193,334Zm170.776-49.075a168.168,168.168,0,0,1,4.431-26.982c2.891-11.751,8.121-22.246,16.688-30.931a28.226,28.226,0,0,1,7.075-5.5c4.442-2.291,7.262-1.269,9.131,3.385a29.575,29.575,0,0,1,1.657,13.6,52.531,52.531,0,0,1-38.1,46.361A5.37,5.37,0,0,1,797.969,284.928ZM774.3,458.348c-71.357,0-131.185-50.368-145.781-117.412a10.678,10.678,0,0,0,5.006,1.058,17.556,17.556,0,0,0,3.126-.341c5.676-1.1,10.835-3.584,15.912-6.252,10.342-5.441,20.013-11.963,29.862-18.2,7.979-5.041,15.9-10.165,24.514-14.055a33.543,33.543,0,0,1,8.767-2.75c1.386-.188,1.974-.047,1.692,1.669-1.21,7.556-1.116,15.183-1,22.81.047,2.35.834,2.785,4.43,3.773,1.975.529,2.644-.717,3.385-2a45.188,45.188,0,0,0,3.373-8.32,135.888,135.888,0,0,1,6.746-16.676,24.68,24.68,0,0,1,6.593-7.9,10.631,10.631,0,0,1-.082,4.008,105.443,105.443,0,0,1-3.784,14.8c-1.292,4.325-1.575,8.673.6,12.845,1.751,3.385,3.96,3.479,6.123.305a31.8,31.8,0,0,0,3.137-6.6A144.975,144.975,0,0,1,757.355,297.2c1.821-3.1,3.831-6.005,6.969-7.944.611-.376,1.316-1.211,2-.717.634.435.024,1.3-.129,1.95-1.222,4.936-3.314,9.625-4.418,14.631-1.634,7.592-3.173,15.207-2.715,23.022.423,7.427,4.207,12.268,10.764,14.431a4.638,4.638,0,0,0,5.582-1.492,42.308,42.308,0,0,0,5.864-9.154c1.516-3.044,2.867-6.158,4.5-9.683V334.9c0,1.269-.07,2.738,1.575,3.009a11.406,11.406,0,0,0,8.755-1.927,2.065,2.065,0,0,0,.763-1.422q1.6-8.761,3.3-17.5c1.211-6.287,2.962-12.363,6.757-17.651.764-1.046,1.586-2.421,3.126-2.045,1.386.341,1.6,1.845,1.845,3.055a37.46,37.46,0,0,1,.611,11.047,162.568,162.568,0,0,0-.928,18.826c.141,4.83.4,9.66,2.3,14.184,2.174,5.241,6.464,6.816,11.611,4.348a16.264,16.264,0,0,0,6.534-6.322c1.986-3.115,3.773-6.357,6.276-9.143a130.069,130.069,0,0,1,31.812-25.7c9.3-5.312,19.084-9.425,29.861-10.33,8.555-.717,16.887-.2,23.421,6.393.059,1.81.094,3.62.094,5.441C923.49,391.422,856.564,458.348,774.3,458.348Z" transform="translate(-621 -155.858)"/>
      </g>
      <g id="Group_5" data-name="Group 5" transform="translate(60.571 221.722)">
        <path id="Path_5" data-name="Path 5" class="cls-5" d="M720.963,525.391h9.9v1.4h-4.223v12.761h-1.469V526.786h-4.2Z" transform="translate(-720.963 -523.2)"/>
        <path id="Path_6" data-name="Path 6" class="cls-5" d="M740.326,539.547V525.391h1.469v6.115H749.1v-6.115h1.469v14.156H749.1V532.9h-7.308v6.647Z" transform="translate(-728.593 -523.2)"/>
        <path id="Path_7" data-name="Path 7" class="cls-5" d="M761.477,539.547V525.391H768.8v1.4h-5.858v4.719H767.7v1.4h-4.756v5.251H768.8v1.4Z" transform="translate(-736.928 -523.2)"/>
        <path id="Path_8" data-name="Path 8" class="cls-5" d="M790.082,539.547V525.391H791.5l5.05,11.99,5.049-11.99h1.414v14.156H801.54V529.339q-1.083,2.552-2.176,5.123t-2.139,5.086h-1.359l-4.315-10.209v10.209Z" transform="translate(-748.2 -523.2)"/>
        <path id="Path_9" data-name="Path 9" class="cls-5" d="M820.112,525.391l5.8,14.156H824.3l-1.982-4.866h-4.958q-.459,1.194-.946,2.424t-.945,2.442h-1.6l5.545-14.156Zm-2.221,7.9h3.874q-.257-.606-.5-1.184t-.477-1.157q-.24-.579-.487-1.185t-.523-1.285Z" transform="translate(-757.574 -523.2)"/>
        <path id="Path_10" data-name="Path 10" class="cls-5" d="M836.171,539.547V525.391h1.248l7.051,6.959v-6.959h1.469v14.156H844.47v-5.2l-6.83-6.7v11.9Z" transform="translate(-766.362 -523.2)"/>
        <path id="Path_11" data-name="Path 11" class="cls-5" d="M860.989,525.391l5.8,14.156h-1.616l-1.983-4.866h-4.958q-.459,1.194-.946,2.424t-.945,2.442h-1.6l5.545-14.156Zm-2.221,7.9h3.874q-.257-.606-.5-1.184t-.477-1.157q-.24-.579-.487-1.185t-.523-1.285Z" transform="translate(-773.682 -523.2)"/>
        <path id="Path_12" data-name="Path 12" class="cls-5" d="M882.469,531.386h7.8v1.046a6.805,6.805,0,0,1-.625,2.8,7.3,7.3,0,0,1-1.643,2.286,7.848,7.848,0,0,1-5.371,2.093h-.22a7.792,7.792,0,0,1-2.974-.569,7.677,7.677,0,0,1-2.433-1.561,7.331,7.331,0,0,1-1.634-2.313,7,7,0,0,1,0-5.655,7.242,7.242,0,0,1,1.634-2.3,7.861,7.861,0,0,1,5.408-2.121,7.638,7.638,0,0,1,2.956.588,8.919,8.919,0,0,1,2.571,1.634l-1.028.973a7.427,7.427,0,0,0-2.1-1.377,5.971,5.971,0,0,0-2.4-.5,6.176,6.176,0,0,0-5.683,3.645,5.469,5.469,0,0,0-.487,2.286,5.533,5.533,0,0,0,.487,2.3,6.171,6.171,0,0,0,5.683,3.653h.22a6.193,6.193,0,0,0,2.313-.431,6.317,6.317,0,0,0,1.91-1.176,5.9,5.9,0,0,0,1.331-1.745,5.741,5.741,0,0,0,.6-2.157h-6.316Z" transform="translate(-781.576 -523.081)"/>
        <path id="Path_13" data-name="Path 13" class="cls-5" d="M903.382,539.547V525.391h7.326v1.4h-5.858v4.719h4.755v1.4h-4.755v5.251h5.858v1.4Z" transform="translate(-792.848 -523.2)"/>
        <path id="Path_14" data-name="Path 14" class="cls-5" d="M923.185,525.391a5.166,5.166,0,0,1,1.928.358,4.889,4.889,0,0,1,1.569.992,4.659,4.659,0,0,1,1.056,1.487,4.4,4.4,0,0,1,.385,1.827,4.455,4.455,0,0,1-.221,1.4,4.615,4.615,0,0,1-.624,1.24,5,5,0,0,1-.954,1.009,4.528,4.528,0,0,1-1.23.7l4.058,5.141h-1.818l-3.8-4.792a.9.9,0,0,1-.174.018h-2.782v4.774h-1.469V525.391Zm-2.608,1.4v6.573h2.608a3.55,3.55,0,0,0,1.349-.257,3.436,3.436,0,0,0,1.1-.706,3.39,3.39,0,0,0,.744-1.056,3.165,3.165,0,0,0-.725-3.626,3.461,3.461,0,0,0-1.1-.679,3.666,3.666,0,0,0-1.349-.249Z" transform="translate(-799.045 -523.2)"/>
        <path id="Path_15" data-name="Path 15" class="cls-5" d="M941.485,531.459a7.6,7.6,0,0,1,3.361,1.506,3.313,3.313,0,0,1,1.193,2.626,3.165,3.165,0,0,1-.44,1.689,3.869,3.869,0,0,1-1.176,1.2,5.41,5.41,0,0,1-1.689.725,8.238,8.238,0,0,1-2,.239,6.72,6.72,0,0,1-1.753-.211,7.975,7.975,0,0,1-1.34-.477,4.875,4.875,0,0,1-.882-.514c-.214-.165-.34-.267-.376-.3l.992-1.065a3.612,3.612,0,0,0,.321.248,4.338,4.338,0,0,0,.725.4,6.554,6.554,0,0,0,1.093.376,5.466,5.466,0,0,0,1.386.166,5.753,5.753,0,0,0,1.46-.175,3.963,3.963,0,0,0,1.166-.5,2.4,2.4,0,0,0,.771-.78,1.958,1.958,0,0,0,.276-1.028,2.127,2.127,0,0,0-1.019-1.772,8.175,8.175,0,0,0-2.984-1.148v.018a5.452,5.452,0,0,1-2.828-1.4,3.419,3.419,0,0,1-.6-3.948,3.745,3.745,0,0,1,1.009-1.2,4.784,4.784,0,0,1,1.478-.771,5.652,5.652,0,0,1,1.763-.276,7.083,7.083,0,0,1,1.938.3,5.265,5.265,0,0,1,1.826.909l-.9,1.046a8.528,8.528,0,0,0-1.423-.651,4.186,4.186,0,0,0-1.331-.212,4.532,4.532,0,0,0-1.377.193,3.144,3.144,0,0,0-1.029.533,2.247,2.247,0,0,0-.863,1.809,1.781,1.781,0,0,0,.249.954,2.109,2.109,0,0,0,.679.68,4.4,4.4,0,0,0,1.028.468A12.471,12.471,0,0,0,941.485,531.459Z" transform="translate(-805.852 -523.081)"/>
        <path id="Path_16" data-name="Path 16" class="cls-5" d="M968.531,539.547V525.391H970v6.115h7.308v-6.115h1.469v14.156h-1.469V532.9H970v6.647Z" transform="translate(-818.521 -523.2)"/>
        <path id="Path_17" data-name="Path 17" class="cls-5" d="M998.716,525.391v10.3a3.9,3.9,0,0,1-.34,1.652,3.806,3.806,0,0,1-.927,1.258,4.129,4.129,0,0,1-1.4.808,5.3,5.3,0,0,1-1.754.285,5.518,5.518,0,0,1-1.791-.285,4.5,4.5,0,0,1-1.46-.808,3.888,3.888,0,0,1-.991-1.258,3.64,3.64,0,0,1-.367-1.652v-10.3h1.468v10.264a2.32,2.32,0,0,0,.24,1.037,2.6,2.6,0,0,0,.661.845,3.283,3.283,0,0,0,.992.568,3.818,3.818,0,0,0,2.45.019,2.827,2.827,0,0,0,.936-.542,2.326,2.326,0,0,0,.606-.845,2.73,2.73,0,0,0,.211-1.083V525.391Z" transform="translate(-826.856 -523.2)"/>
        <path id="Path_18" data-name="Path 18" class="cls-5" d="M1008.833,525.391h4.5a3.835,3.835,0,0,1,1.551.294,3.365,3.365,0,0,1,1.13.79,3.26,3.26,0,0,1,.688,1.157,4.216,4.216,0,0,1,.229,1.4,3.083,3.083,0,0,1-.119.845,4.317,4.317,0,0,1-.312.8,4.111,4.111,0,0,1-.459.707,4.45,4.45,0,0,1-.542.569,4.048,4.048,0,0,1,1.745,1.331,3.507,3.507,0,0,1,.642,2.14,4.173,4.173,0,0,1-.33,1.68,3.706,3.706,0,0,1-.936,1.3,4.286,4.286,0,0,1-1.488.845,6.068,6.068,0,0,1-1.983.3h-4.315Zm1.469,1.4v4.7h2.993a1.958,1.958,0,0,0,.827-.23,2.615,2.615,0,0,0,.716-.551,2.7,2.7,0,0,0,.5-.771,2.3,2.3,0,0,0,.183-.909,2.724,2.724,0,0,0-.128-.826,2.052,2.052,0,0,0-.395-.716,1.985,1.985,0,0,0-.68-.505,2.305,2.305,0,0,0-.982-.193Zm0,6.1v5.307h2.919a3.706,3.706,0,0,0,1.451-.257,2.925,2.925,0,0,0,.991-.661,2.6,2.6,0,0,0,.57-.9,2.784,2.784,0,0,0,.184-.973,2.236,2.236,0,0,0-.854-1.818,3.5,3.5,0,0,0-2.286-.7Z" transform="translate(-834.403 -523.2)"/>
        <g id="Group_4" data-name="Group 4" transform="translate(141.163)">
          <path id="Path_19" data-name="Path 19" class="cls-5" d="M953.931,525.291v-3.516h1.491v3.516Z" transform="translate(-953.931 -521.775)"/>
        </g>
      </g>
    </g>
  </g>
</svg>
